# xmcd
# 
# Track frame offsets:
#     150
#     18535
#     37357
#     56305
#     76357
#     91635
#     109270
#     131922
#     156405
#     170827
#     188462
#     203417
#     220725
#     238362
#     257142
#     277837
# 
# Disc length: 4005
# 
# Revision: 9
# Processed by: cddbd v1.5.2PL0 Copyright (c) Steve Scherf et al.
# Submitted via: fre:ac v1.0.31
# 
DISCID=e00fa310
DTITLE=Journey - The Essential Journey [CD1]
DYEAR=2001
DGENRE=Hard Rock
TTITLE0=Only The Young
TTITLE1=Don't Stop Believin'
TTITLE2=Wheel In The Sky
TTITLE3=Faithfully
TTITLE4=Any Way You Want it
TTITLE5=Ask The Lonely
TTITLE6=Who's Crying Now
TTITLE7=Separate Ways (worlds Apart)
TTITLE8=Lights
TTITLE9=Lovin', Touchin', Squeezin'
TTITLE10=Open Arms
TTITLE11=Girl Can't Help It
TTITLE12=Send Her My Love
TTITLE13=When You Love A Woman
TTITLE14=I'll Be Alright Without You
TTITLE15=After The Fall
EXTD=YEAR: 2001
EXTT0=
EXTT1=
EXTT2=
EXTT3=
EXTT4=
EXTT5=
EXTT6=
EXTT7=
EXTT8=
EXTT9=
EXTT10=
EXTT11=
EXTT12=
EXTT13=
EXTT14=
EXTT15=
PLAYORDER=
